# xmcd
#
# Track frame offsets:
#	151
#	34559
#	66996
#	102094
#	121474
#	156229
#	175757
#	216910
#	234173
#	289689
#
# Disc length: 4489 seconds
#
# Revision: 0
# Processed by: cddbd v1.5.2PL0 Copyright (c) Steve Scherf et al.
# Submitted via: EZCDAudioConverter 2.2.2.1
#
DISCID=8511870a
DTITLE=Marsalis and Clapton - Play The Blues - Live From Jazz At Lincoln Center
DYEAR=1900
DGENRE=
TTITLE0=Ice Cream
TTITLE1=Forty-Four
TTITLE2=Joe Turner's Blues
TTITLE3=The Last Time
TTITLE4=Careless Love
TTITLE5=Kidman Blues
TTITLE6=Layla
TTITLE7=Joliet Bound
TTITLE8=Just A Closer Walk With Thee
TTITLE9=Corrine, Corrina
EXTD=
EXTT0=
EXTT1=
EXTT2=
EXTT3=
EXTT4=
EXTT5=
EXTT6=
EXTT7=
EXTT8=
EXTT9=
PLAYORDER=
